<svg width="30" height="11" viewBox="0 0 30 11" fill="none" xmlns="http://www.w3.org/2000/svg">
<path d="M29.425 2.97652C29.7971 2.76125 30 2.48728 30 2.16438C30 1.51859 29.1206 1 28.0045 1C27.4464 1 26.9391 1.13699 26.5502 1.36204L14.9831 8.21135L3.44983 1.36204C3.06088 1.13699 2.53664 1 1.99549 1C0.879369 1 0 1.51859 0 2.16438C0 2.48728 0.202931 2.76125 0.574972 2.97652L13.4273 10.589C13.867 10.863 14.4081 10.9902 15 11C15.5919 11 16.0992 10.863 16.5558 10.589L29.425 2.97652Z" fill="#FF6E30"/>
</svg>
