<svg width="50" height="50" viewBox="0 0 50 50" fill="none" xmlns="http://www.w3.org/2000/svg">
<g clip-path="url(#clip0)">
<path d="M49.9506 14.7001C49.8335 12.0434 49.4039 10.217 48.7884 8.63435C48.1536 6.95441 47.1768 5.45036 45.8971 4.20004C44.6468 2.93026 43.1328 1.94359 41.4723 1.31862C39.8805 0.703186 38.0636 0.273567 35.4069 0.156433C32.7304 0.0293789 31.8807 0 25.0923 0C18.3038 0 17.4541 0.0293789 14.7875 0.146513C12.1308 0.263647 10.3044 0.693647 8.72213 1.3087C7.04181 1.94359 5.53776 2.92034 4.28744 4.20004C3.01766 5.45036 2.03137 6.96433 1.40602 8.62481C0.790588 10.217 0.360969 12.0335 0.243835 14.6902C0.116781 17.3668 0.0874023 18.2164 0.0874023 25.0049C0.0874023 31.7933 0.116781 32.643 0.233915 35.3096C0.351049 37.9663 0.781049 39.7928 1.39648 41.3754C2.03137 43.0554 3.01766 44.5594 4.28744 45.8097C5.53776 47.0795 7.05173 48.0662 8.71221 48.6912C10.3044 49.3066 12.1209 49.7362 14.778 49.8533C17.4442 49.9709 18.2943 49.9998 25.0827 49.9998C31.8712 49.9998 32.7209 49.9709 35.3875 49.8533C38.0442 49.7362 39.8706 49.3066 41.4529 48.6912C44.8131 47.392 47.4698 44.7353 48.769 41.3754C49.384 39.7832 49.814 37.9663 49.9312 35.3096C50.0483 32.643 50.0777 31.7933 50.0777 25.0049C50.0777 18.2164 50.0678 17.3668 49.9506 14.7001ZM45.448 35.1143C45.3404 37.5562 44.9303 38.8748 44.5884 39.7539C43.7483 41.9321 42.0195 43.6609 39.8412 44.501C38.9622 44.8429 37.634 45.2531 35.2017 45.3603C32.5644 45.4778 31.7735 45.5068 25.1022 45.5068C18.4309 45.5068 17.63 45.4778 15.0023 45.3603C12.5605 45.2531 11.2418 44.8429 10.3628 44.501C9.2788 44.1004 8.29213 43.4655 7.49126 42.6353C6.66103 41.8245 6.02614 40.8477 5.62551 39.7638C5.28365 38.8847 4.87349 37.5562 4.76628 35.1242C4.64876 32.487 4.61976 31.6956 4.61976 25.0243C4.61976 18.353 4.64876 17.5522 4.76628 14.9249C4.87349 12.483 5.28365 11.1644 5.62551 10.2853C6.02614 9.20094 6.66103 8.21465 7.50118 7.4134C8.31158 6.58316 9.28834 5.94828 10.3727 5.54804C11.2518 5.20617 12.5803 4.79601 15.0123 4.68842C17.6495 4.57128 18.4408 4.5419 25.1117 4.5419C31.7929 4.5419 32.5839 4.57128 35.2116 4.68842C37.6535 4.79601 38.9721 5.20617 39.8512 5.54804C40.9351 5.94828 41.9218 6.58316 42.7227 7.4134C43.5529 8.22419 44.1878 9.20094 44.5884 10.2853C44.9303 11.1644 45.3404 12.4925 45.448 14.9249C45.5652 17.5621 45.5945 18.353 45.5945 25.0243C45.5945 31.6956 45.5652 32.477 45.448 35.1143Z" fill="white" fill-opacity="0.2"/>
<path d="M25.0919 12.1606C18.0009 12.1606 12.2476 17.9136 12.2476 25.0049C12.2476 32.0963 18.0009 37.8493 25.0919 37.8493C32.1832 37.8493 37.9362 32.0963 37.9362 25.0049C37.9362 17.9136 32.1832 12.1606 25.0919 12.1606ZM25.0919 33.3367C20.4916 33.3367 16.7601 29.6056 16.7601 25.0049C16.7601 20.4043 20.4916 16.6732 25.0919 16.6732C29.6925 16.6732 33.4236 20.4043 33.4236 25.0049C33.4236 29.6056 29.6925 33.3367 25.0919 33.3367Z" fill="white" fill-opacity="0.2"/>
<path d="M41.4433 11.6526C41.4433 13.3085 40.1006 14.6512 38.4444 14.6512C36.7885 14.6512 35.4458 13.3085 35.4458 11.6526C35.4458 9.99632 36.7885 8.65405 38.4444 8.65405C40.1006 8.65405 41.4433 9.99632 41.4433 11.6526Z" fill="white" fill-opacity="0.2"/>
</g>
<defs>
<clipPath id="clip0">
<rect width="50" height="50" fill="white"/>
</clipPath>
</defs>
</svg>
