<svg width="40" height="40" viewBox="0 0 40 40" fill="none" xmlns="http://www.w3.org/2000/svg">
<path d="M39.8983 11.7601C39.8046 9.63478 39.4608 8.17362 38.9684 6.9075C38.4604 5.56354 37.6788 4.3603 36.6549 3.36004C35.6544 2.34421 34.443 1.55487 33.1144 1.0549C31.8407 0.562551 30.3869 0.218854 28.2611 0.125147C26.1195 0.0235032 25.4396 0 20.0078 0C14.576 0 13.8961 0.0235032 11.7624 0.117211C9.63662 0.210918 8.17518 0.55492 6.90912 1.04696C5.5646 1.55487 4.36113 2.33628 3.36068 3.36004C2.34466 4.3603 1.55548 5.57148 1.0551 6.89987C0.562658 8.17362 0.218896 9.62685 0.125171 11.7522C0.0235077 13.8934 0 14.5732 0 20.004C0 25.4347 0.0235077 26.1145 0.117233 28.2478C0.210959 30.3731 0.555026 31.8343 1.04747 33.1004C1.55548 34.4444 2.34466 35.6476 3.36068 36.6479C4.36113 37.6637 5.57254 38.4531 6.90118 38.953C8.17518 39.4454 9.62869 39.7891 11.7548 39.8828C13.8882 39.9768 14.5684 40 20.0002 40C25.432 40 26.1118 39.9768 28.2456 39.8828C30.3713 39.7891 31.8328 39.4454 33.0988 38.953C35.7875 37.9137 37.9133 35.7883 38.9528 33.1004C39.445 31.8267 39.789 30.3731 39.8828 28.2478C39.9765 26.1145 40 25.4347 40 20.004C40 14.5732 39.9921 13.8934 39.8983 11.7601ZM36.2956 28.0915C36.2095 30.045 35.8813 31.0999 35.6077 31.8032C34.9355 33.5458 33.5522 34.9288 31.8093 35.6009C31.1059 35.8744 30.0431 36.2026 28.0969 36.2883C25.9867 36.3823 25.3538 36.4055 20.0157 36.4055C14.6776 36.4055 14.0368 36.3823 11.9343 36.2883C9.98038 36.2026 8.92529 35.8744 8.22189 35.6009C7.35455 35.2804 6.56505 34.7725 5.92424 34.1083C5.25992 33.4597 4.75191 32.6783 4.43135 31.8111C4.15781 31.1079 3.82962 30.045 3.74383 28.0994C3.6498 25.9897 3.62659 25.3566 3.62659 20.0195C3.62659 14.6825 3.6498 14.0418 3.74383 11.9399C3.82962 9.98642 4.15781 8.93152 4.43135 8.22826C4.75191 7.36077 5.25992 6.57174 5.93218 5.93074C6.58062 5.26655 7.36218 4.75863 8.22983 4.43844C8.93322 4.16495 9.99626 3.83682 11.9422 3.75074C14.0524 3.65704 14.6856 3.63353 20.0234 3.63353C25.3694 3.63353 26.0022 3.65704 28.1048 3.75074C30.0587 3.83682 31.1138 4.16495 31.8172 4.43844C32.6845 4.75863 33.474 5.26655 34.1148 5.93074C34.7792 6.57937 35.2872 7.36077 35.6077 8.22826C35.8813 8.93152 36.2095 9.99405 36.2956 11.9399C36.3893 14.0497 36.4128 14.6825 36.4128 20.0195C36.4128 25.3566 36.3893 25.9817 36.2956 28.0915Z" fill="#FF6E30"/>
<path d="M20.0079 9.72876C14.334 9.72876 9.73047 14.3311 9.73047 20.0042C9.73047 25.6774 14.334 30.2797 20.0079 30.2797C25.6821 30.2797 30.2854 25.6774 30.2854 20.0042C30.2854 14.3311 25.6821 9.72876 20.0079 9.72876ZM20.0079 26.6697C16.327 26.6697 13.3412 23.6848 13.3412 20.0042C13.3412 16.3237 16.327 13.3388 20.0079 13.3388C23.6892 13.3388 26.6746 16.3237 26.6746 20.0042C26.6746 23.6848 23.6892 26.6697 20.0079 26.6697Z" fill="#FF6E30"/>
<path d="M33.0919 9.32219C33.0919 10.6469 32.0176 11.721 30.6923 11.721C29.3673 11.721 28.293 10.6469 28.293 9.32219C28.293 7.99716 29.3673 6.92334 30.6923 6.92334C32.0176 6.92334 33.0919 7.99716 33.0919 9.32219Z" fill="#FF6E30"/>
</svg>
