<svg width="41" height="40" viewBox="0 0 41 40" fill="none" xmlns="http://www.w3.org/2000/svg">
<path d="M28.721 35V31.6667C28.721 27.9848 25.7388 25 22.0601 25H8.73812C5.05937 25 2.07715 27.9848 2.07715 31.6667V35" stroke="#FF6E30" stroke-width="2" stroke-linecap="round" stroke-linejoin="round"/>
<path fill-rule="evenodd" clip-rule="evenodd" d="M15.4022 18.3333C19.0809 18.3333 22.0632 15.3486 22.0632 11.6667C22.0632 7.98477 19.0809 5 15.4022 5C11.7234 5 8.74121 7.98477 8.74121 11.6667C8.74121 15.3486 11.7234 18.3333 15.4022 18.3333Z" stroke="#FF6E30" stroke-width="2" stroke-linecap="round" stroke-linejoin="round"/>
<path d="M38.7106 34.9999V31.6666C38.7083 28.6284 36.654 25.9761 33.7148 25.2166" stroke="#FF6E30" stroke-width="2" stroke-linecap="round" stroke-linejoin="round"/>
<path d="M27.0625 5.21655C30.0098 5.97184 32.0713 8.62987 32.0713 11.6749C32.0713 14.7199 30.0098 17.3779 27.0625 18.1332" stroke="#FF6E30" stroke-width="2" stroke-linecap="round" stroke-linejoin="round"/>
</svg>
