<svg width="30" height="30" viewBox="0 0 30 30" fill="none" xmlns="http://www.w3.org/2000/svg">
<path fill-rule="evenodd" clip-rule="evenodd" d="M26.2498 21.1501V24.9001C26.2527 25.6041 25.9586 26.2766 25.4399 26.7525C24.9212 27.2283 24.2259 27.4635 23.5248 27.4001C19.6783 26.9822 15.9836 25.6678 12.7373 23.5626C9.71709 21.6435 7.15647 19.0828 5.2373 16.0626C3.12478 12.8016 1.81011 9.08887 1.3998 5.22512C1.33664 4.52621 1.57014 3.83294 2.04326 3.31465C2.51638 2.79636 3.18555 2.50078 3.8873 2.50012H7.6373C8.89213 2.48777 9.96168 3.40758 10.1373 4.65012C10.2956 5.85021 10.5891 7.02853 11.0123 8.16262C11.3557 9.07622 11.1361 10.1061 10.4498 10.8001L8.8623 12.3876C10.6417 15.5171 13.2329 18.1082 16.3623 19.8876L17.9498 18.3001C18.6438 17.6139 19.6737 17.3942 20.5873 17.7376C21.7214 18.1608 22.8997 18.4543 24.0998 18.6126C25.3568 18.7899 26.2813 19.8811 26.2498 21.1501Z" stroke="white" stroke-width="1.2" stroke-linecap="round" stroke-linejoin="round"/>
<path fill-rule="evenodd" clip-rule="evenodd" d="M26.2498 21.1501V24.9001C26.2527 25.6041 25.9586 26.2766 25.4399 26.7525C24.9212 27.2283 24.2259 27.4635 23.5248 27.4001C19.6783 26.9822 15.9836 25.6678 12.7373 23.5626C9.71709 21.6435 7.15647 19.0828 5.2373 16.0626C3.12478 12.8016 1.81011 9.08887 1.3998 5.22512C1.33664 4.52621 1.57014 3.83294 2.04326 3.31465C2.51638 2.79636 3.18555 2.50078 3.8873 2.50012H7.6373C8.89213 2.48777 9.96168 3.40758 10.1373 4.65012C10.2956 5.85021 10.5891 7.02853 11.0123 8.16262C11.3557 9.07622 11.1361 10.1061 10.4498 10.8001L8.8623 12.3876C10.6417 15.5171 13.2329 18.1082 16.3623 19.8876L17.9498 18.3001C18.6438 17.6139 19.6737 17.3942 20.5873 17.7376C21.7214 18.1608 22.8997 18.4543 24.0998 18.6126C25.3568 18.7899 26.2813 19.8811 26.2498 21.1501Z" stroke="white" stroke-width="1.2" stroke-linecap="round" stroke-linejoin="round"/>
</svg>
