<svg width="50" height="50" viewBox="0 0 50 50" fill="none" xmlns="http://www.w3.org/2000/svg">
<path d="M25.2581 11.8359C18.1605 11.8359 12.4111 17.5457 12.4111 24.6036C12.4111 27.3792 13.3231 29.9961 14.8695 32.0976L13.2438 36.8558L18.2002 35.2697C20.2224 36.6179 22.6808 37.3712 25.2977 37.3712C32.3953 37.3712 38.1843 31.6615 38.1843 24.6036C38.1447 17.5457 32.3556 11.8359 25.2581 11.8359ZM32.7918 29.8772C32.4746 30.7495 30.9282 31.5822 30.2541 31.6615C29.58 31.7408 29.58 32.2166 25.7339 30.7495C21.9274 29.2428 19.5087 25.3966 19.3104 25.119C19.1122 24.8811 17.764 23.0968 17.764 21.2729C17.764 19.4489 18.7157 18.537 19.0725 18.1801C19.4294 17.8232 19.8259 17.7043 20.0638 17.7043C20.3017 17.7043 20.5793 17.7439 20.7775 17.7439C21.0154 17.7439 21.293 17.625 21.6102 18.3784C21.9274 19.1317 22.6808 20.9557 22.7601 21.1539C22.8394 21.3522 22.9187 21.5504 22.7997 21.7884C22.6808 22.0263 22.6015 22.1849 22.4429 22.4228C22.2446 22.621 22.0463 22.8986 21.8877 23.0572C21.6895 23.2554 21.4912 23.4537 21.7291 23.8106C21.967 24.1674 22.7204 25.3966 23.8306 26.3879C25.2581 27.6567 26.4873 28.0532 26.8441 28.2515C27.201 28.4497 27.4389 28.4101 27.6371 28.1722C27.875 27.9343 28.5888 27.1016 28.8267 26.7051C29.0646 26.3482 29.3421 26.3879 29.6594 26.5068C30.0162 26.6258 31.8402 27.5378 32.2367 27.736C32.5935 27.9343 32.8711 28.0136 32.9504 28.1722C33.0693 28.2515 33.0693 29.0049 32.7918 29.8772Z" fill="white" fill-opacity="0.2"/>
<path d="M37.4306 0.0197754H12.5297C5.63045 0.0197754 0 5.65023 0 12.5495V37.49C0 44.3497 5.63045 49.9801 12.5297 49.9801H37.4703C44.3695 49.9801 50 44.3497 50 37.4504V12.5495C49.9604 5.65023 44.3299 0.0197754 37.4306 0.0197754ZM25.2577 39.7898C22.5615 39.7898 20.0634 39.1157 17.843 37.8865L9.35765 40.5828L12.1332 32.4543C10.7454 30.1546 9.95242 27.4583 9.95242 24.6034C9.95242 16.1974 16.8121 9.41708 25.2577 9.41708C33.7034 9.41708 40.563 16.1974 40.563 24.6034C40.563 33.0095 33.7034 39.7898 25.2577 39.7898Z" fill="white" fill-opacity="0.2"/>
</svg>
