<svg width="40" height="40" viewBox="0 0 40 40" fill="none" xmlns="http://www.w3.org/2000/svg">
<path d="M20.2033 9.46045C14.5253 9.46045 9.92578 14.0319 9.92578 19.6827C9.92578 21.9049 10.6554 24.0001 11.8925 25.6827L10.5919 29.4922L14.557 28.2224C16.1748 29.3017 18.1415 29.9049 20.2351 29.9049C25.9131 29.9049 30.5443 25.3335 30.5443 19.6827C30.5126 14.0319 25.8814 9.46045 20.2033 9.46045ZM26.2303 23.9049C25.9765 24.6033 24.7394 25.27 24.2002 25.3335C23.6609 25.397 23.6609 25.7779 20.584 24.6033C17.5388 23.397 15.6038 20.3176 15.4452 20.0954C15.2866 19.9049 14.2081 18.4763 14.2081 17.016C14.2081 15.5557 14.9694 14.8255 15.2549 14.5398C15.5404 14.2541 15.8576 14.1589 16.0479 14.1589C16.2382 14.1589 16.4603 14.1906 16.6189 14.1906C16.8092 14.1906 17.0313 14.0954 17.285 14.6985C17.5388 15.3017 18.1415 16.762 18.2049 16.9208C18.2684 17.0795 18.3318 17.2382 18.2366 17.4287C18.1415 17.6192 18.078 17.7462 17.9512 17.9366C17.7926 18.0954 17.634 18.3176 17.5071 18.4446C17.3485 18.6033 17.1899 18.762 17.3802 19.0478C17.5705 19.3335 18.1732 20.3176 19.0614 21.1112C20.2033 22.1271 21.1867 22.4446 21.4722 22.6033C21.7577 22.762 21.948 22.7303 22.1066 22.5398C22.2969 22.3493 22.8679 21.6827 23.0582 21.3652C23.2485 21.0795 23.4706 21.1112 23.7244 21.2065C24.0098 21.3017 25.469 22.0319 25.7862 22.1906C26.0717 22.3493 26.2937 22.4128 26.3572 22.5398C26.4523 22.6033 26.4523 23.2065 26.2303 23.9049Z" fill="#FF6E30"/>
<path d="M29.9445 0H10.0238C4.50436 0 0 4.50794 0 10.0317V30C0 35.4921 4.50436 40 10.0238 40H29.9762C35.4956 40 40 35.4921 40 29.9683V10.0317C39.9683 4.50794 35.4639 0 29.9445 0ZM20.2062 31.8413C18.0492 31.8413 16.0508 31.3016 14.2744 30.3175L7.48612 32.4762L9.70658 25.9683C8.59635 24.127 7.96194 21.9683 7.96194 19.6825C7.96194 12.9524 13.4496 7.52381 20.2062 7.52381C26.9627 7.52381 32.4504 12.9524 32.4504 19.6825C32.4504 26.4127 26.9627 31.8413 20.2062 31.8413Z" fill="#FF6E30"/>
</svg>
